<?xml version="1.0" encoding="UTF-8" standalone="no"?>
<!-- Created with Inkscape (http://www.inkscape.org/) -->

<svg
   width="4.3994093cm"
   height="5.0800004cm"
   viewBox="0 0 43.994093 50.800004"
   version="1.1"
   id="svg1"
   sodipodi:docname="nfcore-seqinspector-logo-hex-light.svg"
   inkscape:version="1.3.2 (091e20e, 2023-11-25)"
   xmlns:inkscape="http://www.inkscape.org/namespaces/inkscape"
   xmlns:sodipodi="http://sodipodi.sourceforge.net/DTD/sodipodi-0.dtd"
   xmlns="http://www.w3.org/2000/svg"
   xmlns:svg="http://www.w3.org/2000/svg">
  <sodipodi:namedview
     id="namedview1"
     pagecolor="#ffffff"
     bordercolor="#000000"
     borderopacity="0.25"
     inkscape:showpageshadow="2"
     inkscape:pageopacity="0.0"
     inkscape:pagecheckerboard="0"
     inkscape:deskcolor="#d1d1d1"
     inkscape:document-units="cm"
     inkscape:zoom="1.2291666"
     inkscape:cx="83.389837"
     inkscape:cy="96.000008"
     inkscape:window-width="1312"
     inkscape:window-height="431"
     inkscape:window-x="0"
     inkscape:window-y="25"
     inkscape:window-maximized="0"
     inkscape:current-layer="layer2" />
  <defs
     id="defs1">
    <linearGradient
       id="f-22-3-1-7-8-1"
       x2="1"
       gradientTransform="matrix(37.935665,29.63859,-29.63859,37.935665,121.09789,274.19726)"
       gradientUnits="userSpaceOnUse">
      <stop
         id="stop12-6-8-2-3-6-1"
         offset="0"
         stop-color="#0c542a" />
      <stop
         id="stop14-1-5-0-3-8-5"
         offset=".215"
         stop-color="#0c542a" />
      <stop
         id="stop16-0-6-0-9-84-9"
         offset=".58"
         stop-color="#25af64" />
      <stop
         id="stop18-61-1-6-2-3-7"
         offset=".847"
         stop-color="#25af64" />
      <stop
         id="stop20-5-1-3-4-1-7"
         offset="1"
         stop-color="#25af64" />
    </linearGradient>
  </defs>
  <g
     id="layer1"
     transform="translate(-71.268573,-58.86979)">
    <g
       id="g10"
       transform="matrix(0.06595672,0,0,0.06595672,130.93371,79.44458)">
      <g
         id="g2-2-7-6-0-6"
         transform="matrix(0.26458333,0,0,0.26458333,-4127.8278,-320.80776)">
        <path
           class="st0"
           d="m 13442.739,2896.0016 -1218.5,-703.5 v -1407 l 1218.5,-703.500006 1218.5,703.500006 v 1407 z"
           id="path1-5-1-5-1-7-9-4-6-5"
           style="fill:#ffffff;fill-opacity:1;stroke:#000000" />
        <path
           class="st1"
           d="m 13442.739,2944.5016 -1260.5,-727.8 v -1455.4 l 1260.5,-727.800003 1260.5,727.800003 v 1455.5 z m -1176.5,-776.2 1176.5,679.3 1176.5,-679.3 v -1358.6 l -1176.5,-679.3 -1176.5,679.3 z"
           id="path2-9-6-2-8-0-2-8-89-6"
           style="fill:#24b064;fill-opacity:1;stroke:none" />
      </g>
      <g
         id="g469-8-7-2-3"
         transform="matrix(0.26458333,0,0,0.26458333,-6110.6309,-276.97227)">
        <g
           id="g24-3-2-66-9"
           transform="translate(20538.471,2032.0725)">
          <text
             xml:space="preserve"
             style="font-size:209.867px;line-height:1.15;font-family:Inter;-inkscape-font-specification:Inter;text-align:end;text-decoration-color:#000000;letter-spacing:0px;text-anchor:end;fill:#000000;fill-opacity:1;stroke:none;stroke-width:8.11843;stroke-dasharray:8.11843, 8.11843;paint-order:stroke markers fill"
             x="-246.07022"
             y="132.04375"
             id="text14-0-4-8-3-49-4"><tspan
               id="tspan14-9-8-7-5-5-8"
               x="-246.07022"
               y="132.04375"
               style="font-style:normal;font-variant:normal;font-weight:bold;font-stretch:normal;font-size:209.867px;font-family:'Maven Pro';-inkscape-font-specification:'Maven Pro Bold';text-align:start;text-anchor:start;fill:#000000;fill-opacity:1;stroke:none">seqinspector</tspan></text>
          <g
             id="g15-1-1-3-1-0-1"
             transform="translate(3.4958484e-6,-433.00129)">
            <g
               id="g18-7-0-1-7-4-2">
              <g
                 id="layer2-7-3-0-8-8-9"
                 style="display:inline"
                 transform="translate(-174.624,108)">
                <g
                   id="g4209-1-0-0-9-7-3">
                  <path
                     id="path24-1-4-5-4-1-9"
                     d="m 1084.1,163.75 v 3.6 c -0.1,0 -0.1,0 -0.2,0.1 l -1.8,-1.5 c -4,-3.4 -8.3,-6.4 -13.1,-8.8 -0.8,-0.4 -1.6,-0.9 -2.5,-1.1 -0.1,-0.1 -0.2,-0.2 -0.3,-0.2 -1.8,-0.7 -3.6,-1.3 -5.5,-1.8 -4.1,-0.9 -8.2,-1 -12.3,-0.2 -5.3,1.1 -10,3.4 -14.5,6.4 -4.4,3 -8.4,6.5 -12.1,10.2 -0.7,0.7 -0.7,0.7 -1.1,-0.2 -2,-4.1 -4.2,-8.1 -6.9,-11.8 -2.1,-2.8 -4.4,-5.4 -7.4,-7.2 -3,-1.9 -6.3,-2.6 -9.8,-1.7 -4.3,1 -7.8,3.6 -11.1,6.4 -2,1.5 -3.8,3.3 -5.6,5 -1.7,1.5 -3.3,3 -5,4.5 -0.3,0.3 -0.5,0.3 -0.8,0 -1.7,-1.8 -3.5,-3.4 -5.6,-4.5 -3.1,-1.7 -6.3,-1.9 -9.6,-0.8 -2.8,0.9 -5.2,2.4 -7.7,4 -1,0.6 -1.9,1.3 -2.9,1.8 v -0.2 c 0.1,-0.2 0.1,-0.4 0.1,-0.6 0.2,-4.4 0.5,-8.9 1.2,-13.3 1,-6.1 2.5,-12 5.2,-17.5 2,-4.1 4.7,-7.9 8.1,-11 4.5,-4.1 9.8,-6.7 15.6,-8.3 6.3,-1.8 12.7,-2.6 19.2,-2.9 2.6,-0.1 5.1,-0.2 7.7,-0.3 1.3,0.5 2.6,0.8 3.9,1.2 1.9,0.6 3.8,1.2 5.7,1.7 1,0.4 1.9,0.7 2.9,1.1 3.7,1.3 7.3,3 10.4,5.5 0.8,0.6 1.6,1.3 2.4,2 -0.2,-0.6 -0.4,-1.1 -0.6,-1.7 -1.4,-3.7 -3.5,-6.7 -6.9,-8.8 -1.4,-0.9 -2.9,-1.5 -4.4,-2.3 0.1,0 0.3,0 0.4,-0.1 4.5,-0.8 9.1,-1.2 13.7,-1.4 3.9,-0.2 7.9,-0.1 11.8,0.3 4.6,0.5 9.1,1.4 13.4,3 6.4,2.4 11.9,6.1 16.2,11.5 3.7,4.7 6.1,10.1 7.6,15.9 1.5,5.7 2.1,11.6 2.3,17.5 -0.1,2.1 -0.1,4.3 -0.1,6.5"
                     class="st0"
                     style="fill:#24af63" />
                  <path
                     id="path26-5-4-0-1-72-0"
                     d="m 1084.1,157.15 h 0.1 v 6.6 h -0.1 z"
                     class="st4"
                     style="fill:#ecdc86" />
                  <path
                     id="path28-9-4-3-6-7-8"
                     d="m 1047.6,62.25 v 0.1 h -4.5 v -0.1 z"
                     style="fill:#a0918f" />
                  <path
                     id="path30-7-4-1-4-2-8"
                     d="m 1050.5,250.65 c 2.5,-1 4.9,-2.3 7.3,-3.6 2.8,-1.7 5.4,-3.5 8,-5.4 2.2,-1.6 4.3,-3.3 6.4,-5.1 l 3.6,-3 c 0.2,-0.2 0.2,-0.1 0.3,0.1 0.4,1.6 0.7,3.3 1.1,5 0.5,2.3 0.8,4.6 1.1,6.9 0.3,2.7 0.4,5.3 0.2,8 -0.2,3.3 -0.8,6.6 -2,9.7 q -1.05,2.85 -2.7,5.4 c -1.4,2.2 -3,4.2 -5,5.9 -2.3,2.1 -4.9,3.9 -7.7,5.4 -3.7,2.1 -7.7,3.6 -11.8,4.8 -3.9,1.2 -7.9,2 -11.9,2.7 -1.1,0.2 -2.2,0.4 -3.3,0.4 -2.3,-0.1 -4.6,-0.6 -6.8,-1.4 -3.3,-1.3 -6.2,-3.3 -9.5,-4.8 -1.8,-0.8 -3.6,-1.4 -5.5,-1.5 -2.5,-0.2 -4.6,0.7 -6.4,2.4 l -3.9,3.9 c -2.2,2.2 -4.8,3.7 -7.9,4.2 -2.1,0.3 -4.1,0.2 -6.2,-0.1 -2.9,-0.4 -5.7,-1.1 -8.4,-1.9 -4,-1.3 -7.7,-3.1 -11.1,-5.7 -3.2,-2.4 -5.7,-5.4 -7.8,-8.8 -2.1,-3.5 -3.3,-7.2 -4.2,-11.1 -0.4,-1.7 -0.6,-3.5 -0.8,-5.2 -0.3,-2.5 -0.4,-4.9 -0.3,-7.4 0.1,-3.5 0.4,-6.9 0.9,-10.4 0.4,0.4 0.8,0.7 1.1,1 2.2,2 4.7,3.8 7.3,5.4 2.9,1.7 6.1,3.1 9.4,4 2.2,0.6 4.5,1 6.8,1.1 1.9,0.2 3.8,0.2 5.7,0.1 2.2,-0.1 4.5,-0.3 6.7,-0.9 0.3,0 0.6,0 0.8,-0.1 q 3,-0.6 6,-1.5 c 2.3,-0.7 4.5,-1.4 6.7,-2.2 2.1,-0.8 4.3,-1.7 6.4,-2.6 0.6,-0.3 1,-0.2 1.5,0.2 3.5,2.7 7.3,5 11.4,6.7 4.6,1.8 9.3,2.7 14.2,2.3 3.6,-0.7 7,-1.6 10.3,-2.9"
                     class="st0"
                     style="fill:#24af63" />
                  <path
                     id="path32-7-7-80-3-26-5"
                     d="m 1050.5,250.65 c -3.3,1.3 -6.7,2.2 -10.2,2.5 -4.9,0.4 -9.6,-0.5 -14.2,-2.3 -4.1,-1.6 -7.9,-3.9 -11.4,-6.7 -0.5,-0.4 -0.9,-0.5 -1.5,-0.2 -2.1,0.9 -4.2,1.8 -6.4,2.6 -2.2,0.8 -4.4,1.6 -6.7,2.2 -2,0.6 -4,1 -6,1.5 -0.3,0.1 -0.6,0.1 -0.8,0.1 l 2.1,-2.4 c 2.8,-3.2 4.8,-6.9 5.9,-11.1 1.6,-5.6 3.2,-11.3 4.6,-17 1,-4.2 1.8,-8.4 2.4,-12.7 0.4,-3.1 1,-14.9 0.8,-17.7 -0.5,-8.6 -2.4,-16.8 -5.9,-24.7 -2.1,-4.7 -5.7,-7.9 -10.7,-9.2 -2.2,-0.6 -4.4,-0.4 -6.5,0.3 -0.2,0.1 -0.3,0.2 -0.5,0.1 3.3,-2.8 6.7,-5.4 11.1,-6.4 3.5,-0.8 6.8,-0.2 9.8,1.7 3,1.9 5.3,4.4 7.4,7.2 2.7,3.7 4.9,7.7 6.9,11.8 0.4,0.9 0.4,0.9 1.1,0.2 3.7,-3.8 7.7,-7.3 12.1,-10.2 4.4,-3 9.2,-5.3 14.5,-6.4 4.1,-0.8 8.2,-0.7 12.3,0.2 1.9,0.4 3.7,1 5.5,1.8 0.1,0.1 0.3,0.1 0.3,0.2 -5.3,0.1 -9.8,2.1 -13.9,5.2 -2,1.5 -3.8,3.2 -5.2,5.3 -1.1,1.7 -2.1,3.6 -2.9,5.5 -1.8,3.8 -3.3,7.8 -4.4,11.9 -0.9,3.5 -1.5,7.1 -1.8,10.7 -0.2,2.8 -0.3,5.6 -0.2,8.4 0.1,3.4 0.5,6.8 0.9,10.3 0.7,5.7 1.7,11.4 2.7,17.1 0.5,3.1 0.9,6.3 1.5,9.5 0.7,4.6 3.3,8 7,10.6 0,-0.1 0.2,0 0.3,0.1"
                     class="st4"
                     style="fill:#ecdc86" />
                  <path
                     id="path34-6-6-17-5-1-0"
                     d="m 1043.1,62.35 h 4.5 c 3.6,0.2 7.2,0.8 10.6,2 2.7,0.9 3.3,2.7 1.7,5 -1.1,1.6 -2.7,2.8 -4.4,3.9 -2.1,1.4 -4.4,2.6 -6.9,3.5 -2.5,1 -4.9,0 -6.5,-2.5 -0.5,-0.8 -0.9,-1.6 -1.1,-2.5 -0.1,-0.3 -0.2,-0.4 -0.5,-0.4 -5.6,-1 -10.6,0.3 -14.7,4.3 -3.4,3.2 -5.4,7.3 -6.8,11.7 -1.3,4 -1.9,8 -2.1,12.2 -0.2,3.7 0.1,7.4 0.6,11 0.1,0.6 0.3,1.2 0.3,1.9 0.1,0.8 -0.2,1.5 -0.8,1.9 -0.7,0.5 -1.5,0.4 -2.3,0.4 -1.9,-0.6 -3.8,-1.2 -5.7,-1.7 v -1.3 c 0,-2 0,-3.9 0.1,-5.9 0.4,-7.7 1.6,-15.3 4.6,-22.5 2.2,-5.4 5.4,-10.1 9.9,-13.8 3.7,-3.1 7.9,-5.1 12.6,-6.2 2.4,-0.6 4.6,-0.9 6.9,-1"
                     style="fill:#3f2b29" />
                  <path
                     id="path36-7-31-9-4-0-9"
                     d="m 1014.8,114.65 c 0.8,0 1.6,0.1 2.3,-0.4 0.7,-0.5 0.9,-1.2 0.8,-1.9 -0.1,-0.6 -0.2,-1.3 -0.3,-1.9 0.4,0 0.7,-0.1 1.1,-0.1 1.4,0.8 2.9,1.5 4.4,2.3 3.4,2.1 5.5,5.1 6.9,8.8 0.2,0.6 0.4,1.1 0.6,1.7 -0.8,-0.7 -1.6,-1.4 -2.4,-2 -3.2,-2.4 -6.7,-4.1 -10.4,-5.5 -1.1,-0.3 -2,-0.6 -3,-1"
                     class="st7"
                     style="fill:#396e35" />
                  <path
                     id="path38-3-7-1-8-6-6"
                     d="m 1009.1,111.65 v 1.3 c -1.3,-0.4 -2.6,-0.7 -3.9,-1.2 1.4,-0.1 2.7,-0.1 3.9,-0.1"
                     class="st7"
                     style="fill:#396e35" />
                </g>
              </g>
              <text
                 id="text53-6-5-0-7-1-3"
                 x="-125.72501"
                 y="349.245"
                 font-size="209.87"
                 font-weight="bold"
                 style="font-weight:700;font-size:209.87px;font-family:'Maven Pro'"><tspan
                   id="tspan55-5-9-3-3-5-8"
                   x="-125.72501"
                   y="349.245"
                   class="st0 st1 st2"
                   font-size="209.87"
                   font-weight="bold"
                   style="font-weight:700;font-size:209.867px;font-family:'Maven Pro';fill:#24af63">nf-</tspan></text>
              <text
                 id="text69-63-6-5-3-9-5"
                 x="182.517"
                 y="349.245"
                 font-size="209.87"
                 font-weight="bold"
                 style="font-weight:700;font-size:209.87px;font-family:'Maven Pro';fill:#000000;fill-opacity:1"><tspan
                   id="tspan71-9-2-9-5-4-6"
                   x="182.517"
                   y="349.245"
                   class="st0 st1 st2"
                   font-size="209.87"
                   font-weight="bold"
                   style="font-weight:700;font-size:209.867px;font-family:'Maven Pro';fill:#000000;fill-opacity:1"><tspan
                     id="tspan73-4-1-4-0-9-1"
                     style="fill:#000000;fill-opacity:1">core/</tspan></tspan></text>
              <path
                 id="path67-8-7-8-1-0-1"
                 d="m 125.813,274.116 -21.532,21.616 h 61.092 v -21.617 z"
                 style="fill:url(#f-22-3-1-7-8-1)" />
            </g>
          </g>
        </g>
      </g>
    </g>
  </g>
  <g
     inkscape:groupmode="layer"
     id="layer2"
     inkscape:label="new logo type">
    <g
       id="g26-2-7-6"
       transform="matrix(0.15765358,0,0,0.15765358,52.766169,-29.141665)"
       style="display:inline;stroke:#000000;stroke-width:4.1;stroke-dasharray:none;stroke-opacity:1">
      <g
         id="g21-80-6-2-5"
         transform="rotate(-2.8573892,-28.493017,4420.5515)"
         style="stroke:#000000;stroke-width:5.6;stroke-dasharray:none;stroke-opacity:1">
        <g
           id="g10-7-7-3-3"
           transform="rotate(-16.133558,91.410377,96.829129)"
           style="stroke:#000000;stroke-width:5.6;stroke-dasharray:none;stroke-opacity:1">
          <path
             style="fill:none;stroke:#000000;stroke-width:5.6;stroke-linecap:round;stroke-linejoin:round;stroke-dasharray:none;stroke-opacity:1"
             d="m -107.82606,250.32044 c 0,0 5.89176,-48.50966 39.012709,-54.31454 40.789261,-7.14886 50.024361,39.52747 50.024361,39.52747 l -25.79873,7.23623 -42.158893,6.92161 z"
             id="path2-7-6-8-0" />
          <path
             style="fill:none;stroke:#000000;stroke-width:5.6;stroke-linecap:round;stroke-linejoin:round;stroke-dasharray:none;stroke-opacity:1"
             d="m -64.723308,191.48676 c 0,0 -12.90012,14.81379 -16.517478,23.75371 -4.284344,10.58829 -5.505827,33.8215 -5.505827,33.8215 v 0"
             id="path3-9-3-3-4" />
          <path
             style="fill:none;stroke:#000000;stroke-width:5.6;stroke-linecap:round;stroke-linejoin:round;stroke-dasharray:none;stroke-opacity:1"
             d="m -72.431465,191.64407 c 0,0 14.305059,12.75363 19.191736,21.70868 4.884765,8.95156 7.236229,29.25954 7.236229,29.25954 v 0 0"
             id="path4-60-4-5-8" />
          <path
             style="fill:none;stroke:#000000;stroke-width:5.6;stroke-linecap:round;stroke-linejoin:round;stroke-dasharray:none;stroke-opacity:1"
             d="m -46.78172,242.26975 c 0,0 5.94187,17.48748 34.37146,18.35369 9.97593,0.30395 18.57616,-5.89543 18.57616,-5.89543 l -25.8064,-20.46714 v 0"
             id="path5-12-1-1-5" />
          <path
             style="fill:none;stroke:#000000;stroke-width:5.6;stroke-linecap:round;stroke-linejoin:round;stroke-dasharray:none;stroke-opacity:1"
             d="m -107.19683,250.63507 -15.10169,17.61864 c 0,0 12.28249,3.11439 17.93326,0.31461 14.749665,-7.30799 17.933265,-19.19173 17.933265,-19.19173"
             id="path6-3-9-5-5" />
        </g>
      </g>
      <g
         id="g20-2-5-4-5"
         transform="rotate(-2.1870619,4461.1032,7891.3926)"
         style="stroke:#000000;stroke-width:4.1;stroke-dasharray:none;stroke-opacity:1">
        <path
           style="fill:none;stroke:#000000;stroke-width:4.1;stroke-linecap:round;stroke-linejoin:round;stroke-dasharray:none;stroke-opacity:1"
           d="m 111.375,162.97246 c 0,0 8.20573,3.8576 10.38241,6.92161 2.17668,3.06401 2.24277,6.40682 2.51695,9.75317 0.4815,5.87655 -2.62142,12.20682 -1.57309,17.61865 1.69445,8.74727 10.92902,17.36849 19.82098,17.93326 5.44307,0.34571 10.70064,-1.85218 14.47245,-5.34852 4.06105,-3.76446 6.92161,-15.10169 6.92161,-15.10169 l -20.45021,-7.86547 c 0,0 -1.39074,3.07914 -2.83157,3.46081 -1.41201,0.37403 -3.01496,-0.58422 -4.09004,-1.5731 -2.65817,-2.44502 -4.71928,-9.75317 -4.71928,-9.75317 0,0 -1.1717,-7.3121 -3.46081,-10.0678 -2.28911,-2.7557 -9.43855,-5.34852 -9.43855,-5.34852 l -6.92161,-2.20233 z"
           id="path9-1-9-2-4" />
      </g>
      <g
         id="g12-01-8-9-2"
         transform="matrix(0.85471474,0.13012711,-0.12765643,0.87125709,-240.22506,170.41573)"
         style="stroke:#000000;stroke-width:4.1;stroke-dasharray:none;stroke-opacity:1">
        <path
           style="fill:none;stroke:#000000;stroke-width:4.1;stroke-linecap:round;stroke-linejoin:round;stroke-dasharray:none;stroke-opacity:1"
           d="m 145.60568,77.920028 c 0,0 10.29462,7.44293 2.66447,33.340372 -5.41427,18.37653 31.49634,30.1954 28.84965,40.27732 -4.863,18.52443 -25.70904,14.40106 -27.41225,18.03748 -2.19727,4.69126 6.20786,18.11967 6.20786,18.11967"
           id="path11-3-8-1-1"
           sodipodi:nodetypes="csssc" />
        <path
           style="fill:none;stroke:#000000;stroke-width:4.1;stroke-linecap:round;stroke-linejoin:round;stroke-dasharray:none;stroke-opacity:1"
           d="m 184.44929,92.841724 c 0,0 6.02302,16.436126 -7.07725,26.873636 -8.76341,6.98217 -29.287,11.4385 -29.11383,23.61926 0.37738,10.91633 10.73682,15.1015 18.48967,20.89631 2.52004,1.88358 5.88028,4.41217 5.66313,7.55085 -0.65742,9.50211 -17.55229,7.87659 -24.54025,7.55085 -0.75989,0.0336 -3.62752,0.75059 -3.77542,1.25847 -0.68388,2.34849 3.77542,6.29237 3.77542,6.29237"
           id="path12-8-7-5-9"
           sodipodi:nodetypes="cscsscsc" />
      </g>
    </g>
  </g>
</svg>
